<?xml version="1.0" standalone="no"?>
<!DOCTYPE svg PUBLIC "-//W3C//DTD SVG 20010904//EN"
 "http://www.w3.org/TR/2001/REC-SVG-20010904/DTD/svg10.dtd">
<svg version="1.0" xmlns="http://www.w3.org/2000/svg"
 width="1600.000000pt" height="259.000000pt" viewBox="0 0 1600.000000 259.000000"
 preserveAspectRatio="xMidYMid meet">

<g transform="translate(0.000000,259.000000) scale(0.100000,-0.100000)"
fill="#000000" stroke="none">
<path d="M650 1320 l0 -1040 145 0 145 0 0 91 0 91 57 -51 c113 -101 293 -171
437 -171 319 1 574 218 658 558 30 120 29 322 -1 437 -64 247 -236 443 -451
515 -91 30 -262 38 -348 16 -102 -26 -206 -82 -282 -153 l-70 -65 0 406 0 406
-145 0 -145 0 0 -1040z m820 190 c219 -41 363 -236 364 -490 1 -162 -42 -278
-142 -382 -243 -255 -662 -125 -747 233 -88 376 182 704 525 639z"/>
<path d="M8640 1940 l0 -190 -150 0 -150 0 0 -140 0 -140 150 0 150 0 0 -600
0 -600 145 0 145 0 0 600 0 600 175 0 175 0 0 140 0 140 -172 2 -173 3 -3 188
-2 187 -145 0 -145 0 0 -190z"/>
<path d="M2781 1770 c-155 -33 -298 -111 -419 -230 l-44 -43 93 -93 93 -93 60
58 c107 101 208 144 347 144 97 0 165 -23 224 -75 63 -55 87 -107 93 -195 l5
-73 -179 0 c-343 0 -516 -42 -643 -156 -119 -107 -161 -310 -101 -482 58 -164
228 -277 435 -289 151 -9 286 36 416 136 l64 50 3 -79 3 -80 129 0 130 0 0
553 c0 597 -1 611 -54 716 -29 57 -101 131 -159 165 -88 51 -162 68 -312 72
-77 2 -160 -1 -184 -6z m449 -954 l0 -124 -58 -53 c-111 -103 -244 -154 -388
-147 -69 3 -88 7 -130 33 -65 41 -94 92 -94 169 0 128 81 209 237 236 26 4
135 8 241 9 l192 1 0 -124z"/>
<path d="M4254 1762 c-260 -67 -454 -252 -536 -512 -20 -66 -23 -95 -23 -235
0 -184 12 -242 75 -370 90 -180 260 -321 454 -377 117 -33 328 -33 436 1 314
97 512 349 535 684 12 164 -27 340 -106 473 -46 79 -179 210 -259 257 -114 66
-204 89 -365 93 -111 3 -155 0 -211 -14z m349 -272 c119 -45 217 -146 268
-278 31 -81 38 -254 14 -351 -57 -235 -273 -384 -509 -350 -277 39 -447 321
-382 630 40 185 181 332 357 369 65 14 188 4 252 -20z"/>
<path d="M5880 1759 c-356 -92 -584 -461 -531 -861 71 -532 588 -809 1069
-573 78 39 169 108 221 167 l33 38 -68 82 c-37 46 -73 89 -80 97 -11 12 -25 3
-87 -56 -89 -82 -175 -128 -275 -145 -231 -39 -463 122 -527 367 -19 76 -19
204 0 280 38 143 133 261 259 321 183 87 387 42 555 -123 36 -34 65 -62 66
-60 1 1 33 40 70 87 38 47 73 90 77 96 13 18 -65 109 -140 164 -168 125 -433
174 -642 119z"/>
<path d="M7501 1764 c-95 -25 -210 -93 -283 -166 l-68 -67 0 109 0 110 -145 0
-145 0 0 -740 0 -740 145 0 145 0 0 468 c0 515 1 525 61 615 64 97 173 154
314 164 193 14 297 -70 325 -264 5 -37 10 -274 10 -525 l0 -458 146 0 146 0
-5 533 c-4 463 -6 541 -22 602 -51 204 -167 327 -343 364 -72 15 -216 13 -281
-5z"/>
<path d="M10470 1759 c-356 -92 -584 -461 -531 -861 71 -532 588 -809 1069
-573 78 39 169 108 221 167 l33 38 -68 82 c-37 46 -73 89 -80 97 -11 12 -25 3
-87 -56 -89 -82 -175 -128 -275 -145 -231 -39 -463 122 -527 367 -19 76 -19
204 0 280 38 143 133 261 259 321 183 87 387 42 555 -123 36 -34 65 -62 66
-60 1 1 33 40 70 87 38 47 73 90 77 96 13 18 -65 109 -140 164 -168 125 -433
174 -642 119z"/>
<path d="M11945 1765 c-265 -58 -481 -263 -555 -525 -11 -41 -23 -122 -26
-180 -22 -376 184 -682 531 -790 100 -31 265 -38 375 -16 304 62 524 283 586
590 20 97 14 299 -11 391 -71 258 -281 463 -536 525 -99 23 -270 26 -364 5z
m267 -256 c280 -59 434 -371 338 -682 -52 -169 -196 -293 -366 -317 -235 -32
-448 113 -509 347 -19 71 -19 241 -1 308 31 116 120 237 216 293 90 53 217 73
322 51z"/>
<path d="M13775 1770 c-123 -26 -239 -93 -327 -189 l-58 -62 0 115 0 116 -145
0 -145 0 0 -740 0 -740 144 0 145 0 3 482 3 483 29 63 c56 120 172 197 317
209 138 12 240 -49 290 -173 24 -59 24 -59 27 -561 l3 -503 144 0 144 0 3 483
3 482 33 67 c61 124 169 194 317 205 136 11 239 -43 283 -145 37 -85 42 -161
42 -634 l0 -458 146 0 145 0 -3 538 c-4 515 -5 540 -26 615 -59 213 -181 323
-387 349 -76 9 -103 9 -170 -5 -146 -30 -295 -123 -378 -236 l-43 -58 -26 57
c-31 66 -96 142 -149 176 -87 54 -264 86 -364 64z"/>
</g>
</svg>
